<?xml version="1.0" encoding="UTF-8" standalone="no"?>
        <svg 
    viewBox="1.05 -85.79999999999998 448.04999999999995 57.00000000000001"
    width="446.99999999999994"
    height="142.8"
   xmlns="http://www.w3.org/2000/svg"
   xmlns:svg="http://www.w3.org/2000/svg">
   <path d="M50.85-30L50.85-94.50L50.85-102.90L72.60-94.50L84.15-94.50L84.15-126.45L112.50-123.75Q112.20-121.80 110.85-120.45Q109.50-119.10 105.60-118.50L105.60-118.50L105.60-94.50L117.15-94.50L126.60-105L146.25-90.15Q145.65-89.25 144.22-88.27Q142.80-87.30 140.40-86.85L140.40-86.85L140.40-37.50Q140.40-37.05 137.32-35.85Q134.25-34.65 130.13-33.67Q126-32.70 122.40-32.70L122.40-32.70L118.65-32.70L118.65-43.20L105.60-43.20L105.60 8.10Q105.60 8.85 103.05 10.28Q100.50 11.70 96.52 12.82Q92.55 13.95 88.20 13.95L88.20 13.95L84.15 13.95L84.15-43.20L71.55-43.20L71.55-36.60Q71.55-35.70 68.92-34.13Q66.30-32.55 62.25-31.27Q58.20-30 53.85-30L53.85-30L50.85-30ZM71.55-47.40L84.15-47.40L84.15-90.30L71.55-90.30L71.55-47.40ZM105.60-90.30L105.60-47.40L118.65-47.40L118.65-90.30L105.60-90.30ZM30-128.40L30-128.40L58.80-119.85Q58.20-118.35 56.70-117.45Q55.20-116.55 52.65-116.70L52.65-116.70Q45.90-99.30 37.20-85.35L37.20-85.35L45.75-82.20Q45.45-81.15 44.40-80.40Q43.35-79.65 41.10-79.20L41.10-79.20L41.10 8.25Q40.95 9 38.40 10.42Q35.85 11.85 32.02 13.05Q28.20 14.25 24 14.25L24 14.25L20.10 14.25L20.10-63.60Q12.15-55.50 2.70-48.75L2.70-48.75L1.05-49.80Q7.05-59.40 12.67-72.15Q18.30-84.90 22.88-99.38Q27.45-113.85 30-128.40ZM217.80 13.80L217.80-42.60L217.80-50.70L239.40-42.60L263.70-42.60L273.30-53.40L291.15-39.90Q290.40-38.85 289.13-38.17Q287.85-37.50 285.30-36.90L285.30-36.90L285.30 7.65Q285.30 8.25 280.73 10.05Q276.15 11.85 268.05 11.85L268.05 11.85L264.30 11.85L264.30 1.95L237.75 1.95L237.75 9.30Q237.75 10.35 233.40 12.07Q229.05 13.80 221.40 13.80L221.40 13.80L217.80 13.80ZM237.75-38.40L237.75-2.25L264.30-2.25L264.30-38.40L237.75-38.40ZM158.55 4.20L158.55-99.75L158.55-107.85L174.15-101.40Q174.45-107.10 174.60-114.38Q174.75-121.65 174.75-127.50L174.75-127.50L201.75-122.55Q200.85-118.95 195.75-118.50L195.75-118.50Q192.90-114.60 188.63-109.27Q184.35-103.95 180.90-99.75L180.90-99.75L186.30-99.75L195.30-109.50L212.85-95.70Q212.25-94.80 210.90-93.97Q209.55-93.15 207.45-92.70L207.45-92.70L207.45-63.45L240-63.45L240-92.70L227.70-92.70Q223.95-86.40 219.45-81.15Q214.95-75.90 209.70-71.85L209.70-71.85L207.75-72.90Q211.20-82.20 213.82-95.33Q216.45-108.45 217.50-121.35L217.50-121.35L240-114.30L240-127.35L266.40-125.25Q266.25-123.60 265.20-122.47Q264.15-121.35 261-120.90L261-120.90L261-96.90L265.50-96.90L275.55-109.80Q275.55-109.80 277.35-108.38Q279.15-106.95 281.92-104.70Q284.70-102.45 287.77-99.90Q290.85-97.35 293.40-95.10L293.40-95.10Q292.80-92.70 289.20-92.70L289.20-92.70L261-92.70L261-63.45L269.55-63.45L279.75-76.80Q279.75-76.80 281.63-75.30Q283.50-73.80 286.42-71.47Q289.35-69.15 292.50-66.52Q295.65-63.90 298.20-61.65L298.20-61.65Q297.60-59.25 293.85-59.25L293.85-59.25L208.05-59.25L207.45-61.35L207.45-5.55Q207.30-4.95 204.60-3.60Q201.90-2.25 198.22-1.20Q194.55-0.15 191.10-0.15L191.10-0.15L187.80-0.15L187.80-12.75L177.75-12.75L177.75-2.70Q177.75-1.65 175.50 0Q173.25 1.65 169.57 2.92Q165.90 4.20 161.55 4.20L161.55 4.20L158.55 4.20ZM240-96.90L240-111.15Q238.80-110.55 236.55-110.55L236.55-110.55Q235.05-106.95 233.47-103.58Q231.90-100.20 230.10-96.90L230.10-96.90L240-96.90ZM187.80-16.95L187.80-54.75L177.75-54.75L177.75-16.95L187.80-16.95ZM177.75-58.95L187.80-58.95L187.80-95.55L177.75-95.55L177.75-58.95ZM376.80-111.45L378.90-128.10L404.25-125.10Q403.50-121.35 398.25-120.60L398.25-120.60L397.05-111.45L407.10-111.45L416.10-120.75L433.80-107.55Q433.20-106.80 431.77-105.97Q430.35-105.15 428.10-104.70L428.10-104.70L428.10-90.45L435-102.45Q435-102.45 437.25-99.97Q439.50-97.50 442.57-94.13Q445.65-90.75 447.75-87.90L447.75-87.90Q447.15-85.50 443.85-85.50L443.85-85.50L354.90-85.50L353.70-89.70L373.65-89.70L376.20-107.25L364.50-107.25L363.15-111.45L376.80-111.45ZM393.75-89.70L408.60-89.70L408.60-107.25L396.45-107.25L393.75-89.70ZM364.80-10.80L364.80-33.75L364.80-41.70L386.40-33.75L395.25-33.75L395.25-48L413.10-46.50L413.10-50.25L381.60-50.25Q381.60-49.50 379.05-48.07Q376.50-46.65 372.60-45.52Q368.70-44.40 364.65-44.40L364.65-44.40L361.95-44.40L361.95-82.65L382.50-74.85L411.60-74.85L420.60-84.75L439.65-70.50Q439.05-69.60 437.55-68.70Q436.05-67.80 433.65-67.35L433.65-67.35L433.65-51.15Q433.65-50.70 430.80-49.50Q427.95-48.30 424.05-47.32Q420.15-46.35 416.70-46.35L416.70-46.35L415.05-46.35L420.45-45.90Q420.30-44.70 419.48-43.80Q418.65-42.90 416.25-42.45L416.25-42.45L416.25-33.75L420.60-33.75L429.30-45Q429.30-45 432-42.90Q434.70-40.80 438.38-37.73Q442.05-34.65 444.90-31.95L444.90-31.95Q444.45-29.55 440.85-29.55L440.85-29.55L416.25-29.55L416.25-10.80L422.55-10.80L431.70-23.10Q431.70-23.10 434.48-20.77Q437.25-18.45 441.15-15.15Q445.05-11.85 448.05-9L448.05-9Q447.45-6.60 443.85-6.60L443.85-6.60L416.25-6.60L416.25 9.45Q416.25 10.05 413.55 11.25Q410.85 12.45 406.88 13.42Q402.90 14.40 399 14.40L399 14.40L395.25 14.40L395.25-6.60L349.80-6.60L348.60-10.80L364.80-10.80ZM384.30-10.80L395.25-10.80L395.25-29.55L384.30-29.55L384.30-10.80ZM381.60-70.65L381.60-54.45L413.10-54.45L413.10-70.65L381.60-70.65ZM311.10-1.95L302.10-26.10L319.50-29.25L319.50-65.85L306.75-65.85L305.55-70.05L319.50-70.05L319.50-107.55L305.25-107.55L304.05-111.75L334.50-111.75L343.95-125.70Q343.95-125.70 345.68-124.13Q347.40-122.55 350.02-120.15Q352.65-117.75 355.50-115.05Q358.35-112.35 360.60-109.95L360.60-109.95Q360.15-107.55 356.55-107.55L356.55-107.55L340.50-107.55L340.50-72.75L346.50-82.80Q346.50-82.80 348.90-80.33Q351.30-77.85 354.38-74.47Q357.45-71.10 359.70-68.25L359.70-68.25Q359.25-65.85 355.80-65.85L355.80-65.85L340.50-65.85L340.50-33.45L359.70-37.65L360-36.15Q353.55-31.05 342.52-23.40Q331.50-15.75 315.45-6.15L315.45-6.15Q314.25-2.70 311.10-1.95L311.10-1.95Z"/>
    </svg>
        